<mxfile host="app.diagrams.net" modified="2025-02-20T05:27:45.820Z" agent="Mozilla/5.0 (Windows NT 10.0; Win64; x64) AppleWebKit/537.36 (KHTML, like Gecko) Chrome/133.0.0.0 Safari/537.36" version="24.6.4" etag="6N1fFtAeM_fyWoT7xtLf" type="github">
  <diagram name="Page-1" id="7C3ZEdCGir0OcH5bM3Kz">
    <mxGraphModel>
      <root>
        <mxCell id="0" />
        <mxCell id="1" parent="0" />
      </root>
    </mxGraphModel>
  </diagram>
</mxfile>
